<?xml version="1.0" encoding="UTF-8" standalone="no"?>
<!-- Created with Inkscape (http://www.inkscape.org/) -->

<svg
   width="163.76964"
   height="185.36655"
   viewBox="0 0 43.330717 49.044898"
   version="1.1"
   id="svg1"
   xml:space="preserve"
   sodipodi:docname="ignikube.svg"
   xmlns:inkscape="http://www.inkscape.org/namespaces/inkscape"
   xmlns:sodipodi="http://sodipodi.sourceforge.net/DTD/sodipodi-0.dtd"
   xmlns="http://www.w3.org/2000/svg"
   xmlns:svg="http://www.w3.org/2000/svg"><sodipodi:namedview
     id="namedview1"
     pagecolor="#ffffff"
     bordercolor="#000000"
     borderopacity="0.25"
     inkscape:showpageshadow="2"
     inkscape:pageopacity="0.0"
     inkscape:pagecheckerboard="0"
     inkscape:deskcolor="#d1d1d1"
     inkscape:document-units="mm"><inkscape:page
       x="0"
       y="0"
       width="43.330715"
       height="49.044899"
       id="page1"
       margin="0"
       bleed="0" /></sodipodi:namedview><defs
     id="defs1" /><g
     inkscape:label="Layer 1"
     inkscape:groupmode="layer"
     id="layer1"
     transform="translate(-86.903565,-97.595181)"><g
       id="g1"
       transform="matrix(0.25,0,0,0.25,81.426693,91.588222)"><path
         style="fill:#a4a6a9"
         d="m 42.215767,219.87409 c -1.3914,-0.20213 -2.89614,-0.62111 -3.77502,-1.0511 -3.9126,-1.91426 -6.47126,-6.5212 -6.47126,-11.65169 0,-7.48552 4.93745,-12.84454 12.4276,-13.4887 3.29852,-0.28367 7.99426,0.96323 9.3756,2.48959 0.44339,0.48995 0.42153,0.58862 -0.53295,2.40499 -1.1217,2.13461 -1.04362,2.11246 -3.81557,1.08238 -2.14148,-0.7958 -5.50245,-0.76439 -7.27604,0.068 -1.67582,0.7865 -2.6885,1.79918 -3.475,3.475 -0.5085,1.08348 -0.62134,1.75985 -0.62346,3.73704 -0.004,3.74189 0.93484,5.73387 3.37982,7.17112 1.1594,0.68154 1.454,0.7335 4.15822,0.7335 1.60073,0 3.11878,-0.0856 3.37344,-0.19013 0.38993,-0.16012 0.46302,-0.54644 0.46302,-2.4474 v -2.25726 h -2.19604 c -1.35526,0 -2.3176,-0.12156 -2.51354,-0.3175 -0.18403,-0.18403 -0.3175,-1.06589 -0.3175,-2.09777 0,-2.63117 -0.0385,-2.61181 5.19567,-2.61181 2.50232,0 4.58245,0.11684 4.87589,0.27389 0.4825,0.25822 0.51177,0.61156 0.51177,6.1767 0,6.7315 0.16105,6.2496 -2.49494,7.46555 -0.99977,0.45771 -2.50795,0.83776 -4.22615,1.06496 -3.09975,0.40987 -3.01736,0.41027 -6.04356,-0.0293 z m 92.139643,0.0962 c -2.61749,-0.3321 -4.41623,-1.23345 -6.06786,-3.0406 -1.02046,-1.11654 -1.46386,-1.88124 -1.87255,-3.22944 -0.49887,-1.64565 -0.53066,-2.37275 -0.46473,-10.63002 l 0.0708,-8.86354 h 2.77813 2.77812 l 0.1323,8.59895 c 0.14962,9.72551 0.2052,10.01126 2.20484,11.33455 0.90008,0.59565 1.35182,0.704 2.93521,0.704 2.27278,0 3.42132,-0.60159 4.39502,-2.30204 0.64675,-1.12946 0.65232,-1.19867 0.78368,-9.73651 l 0.13229,-8.59895 h 2.77812 2.77813 v 9.525 9.525 l -0.73135,1.48864 c -0.80687,1.64238 -2.73235,3.60343 -4.3243,4.40419 -0.56637,0.28489 -1.80368,0.59993 -2.74956,0.70009 -0.94589,0.10016 -2.13651,0.22494 -2.64583,0.27728 -0.50933,0.0523 -1.81901,-0.0181 -2.91042,-0.1566 z M 21.907507,207.07658 c 0,-11.31929 0.0449,-12.6982 0.41851,-12.84155 0.84931,-0.32591 4.53309,-0.17348 4.84339,0.20042 0.21592,0.26016 0.28041,3.82664 0.23084,12.76615 l -0.0688,12.40512 -2.71198,0.0754 -2.71198,0.0754 z m 37.99601,12.24392 c -0.0883,-0.23018 -0.1606,-5.86184 -0.1606,-12.51479 0,-9.05544 0.0798,-12.1761 0.3175,-12.41378 0.3484,-0.3484 4.38596,-0.44407 4.85346,-0.11501 0.15189,0.10691 2.646045,3.45966 5.542585,7.45055 2.89653,3.99089 5.5367,7.56276 5.86704,7.9375 l 0.60061,0.68133 0.008,-7.71742 c 0.005,-4.24458 0.0806,-7.90575 0.16897,-8.13594 0.21727,-0.5662 4.90204,-0.6164 5.36589,-0.0575 0.21591,0.26017 0.2804,3.82665 0.23083,12.76615 l -0.0688,12.40513 -2.64583,0.0637 -2.64583,0.0637 -1.5747,-2.18038 c -0.86608,-1.19921 -3.42593,-4.61027 -5.68854,-7.58013 l -4.11385,-5.39974 -0.14266,7.51641 c -0.0785,4.13402 -0.16775,7.54617 -0.19843,7.58255 -0.0307,0.0364 -1.293195,0.0661 -2.805595,0.0661 -2.2634,0 -2.77823,-0.074 -2.91042,-0.41851 z m 28.599455,0.2508 c -0.10178,-0.10179 -0.18506,-5.73735 -0.18506,-12.52347 0,-9.24376 0.0796,-12.41803 0.3175,-12.6559 0.46415,-0.46415 4.81785,-0.42778 5.20899,0.0435 0.21592,0.26016 0.28041,3.82664 0.23084,12.76615 l -0.0688,12.40512 -2.65921,0.0748 c -1.46256,0.0412 -2.74248,-0.008 -2.84427,-0.11024 z m 11.784788,-12.59843 0.0687,-12.76615 h 2.77813 2.77812 l 0.0716,5.35781 c 0.0394,2.9468 0.16381,5.35782 0.27649,5.35782 0.11269,0 1.33061,-1.39774 2.70651,-3.10608 1.37589,-1.70834 3.36748,-4.14913 4.42575,-5.42396 l 1.92413,-2.31788 h 3.43368 c 2.96687,0 3.43369,0.0574 3.43369,0.42207 0,0.23214 -2.20266,2.93155 -4.8948,5.99868 -2.69213,3.06714 -4.89338,5.76447 -4.89167,5.99408 0.002,0.2296 2.38297,3.20803 5.29167,6.61871 2.9087,3.41069 5.28855,6.29796 5.28855,6.41615 0,0.11819 -1.65663,0.21489 -3.68139,0.21489 h -3.68139 l -4.54972,-5.55625 c -2.50235,-3.05593 -4.65573,-5.55625 -4.78528,-5.55625 -0.13021,0 -0.23556,2.48495 -0.23556,5.55625 v 5.55625 h -2.91295 -2.91296 z m 53.18125,0 0.0687,-12.76615 h 6.87917 c 7.74087,0 8.52646,0.14482 10.51084,1.93759 2.84926,2.57413 3.06475,6.37358 0.5169,9.11382 -0.83675,0.89993 -1.12263,1.3715 -0.88179,1.45457 0.69682,0.24035 2.19582,1.74606 2.67673,2.68872 1.33231,2.61156 0.82438,5.53901 -1.3622,7.851 -2.2243,2.35187 -2.83873,2.48659 -11.34066,2.48659 h -7.13636 z m 12.74261,7.63472 c 1.19315,-0.49853 1.74587,-1.3701 1.74587,-2.75301 0,-0.91267 -0.15602,-1.30813 -0.75073,-1.90284 -0.90122,-0.90122 -2.11403,-1.12531 -5.46698,-1.01014 l -2.38125,0.0818 -0.0763,2.627 c -0.042,1.44485 -0.0159,2.7843 0.0578,2.97656 0.19159,0.49928 5.66719,0.48385 6.87154,-0.0194 z M 165.5193,204.1088 c 1.05996,-0.3695 1.64444,-1.29121 1.64444,-2.59321 0,-2.00329 -1.92387,-2.83499 -6.08541,-2.63077 l -1.7198,0.0844 -0.0771,2.36031 c -0.0424,1.29817 -0.0164,2.51856 0.0578,2.71198 0.16936,0.44136 4.95742,0.49349 6.18003,0.0673 z m 12.82055,2.86407 0.0687,-12.76615 7.80521,-0.0741 c 4.29287,-0.0408 8.0731,-0.009 8.40052,0.0712 0.55774,0.13613 0.59531,0.2836 0.59531,2.3363 0,1.35134 -0.12167,2.31268 -0.3175,2.50851 -0.22556,0.22556 -1.83444,0.3175 -5.55625,0.3175 h -5.23875 v 2.50757 2.50757 l 4.82865,0.0721 4.82865,0.0721 v 2.38125 2.38125 l -4.82865,0.0721 -4.82865,0.0721 v 2.63987 2.63986 h 5.13774 c 2.82575,0 5.32607,0.0723 5.55625,0.1606 0.33822,0.12979 0.41851,0.61204 0.41851,2.51354 v 2.35294 h -8.4692 -8.46921 z m -71.76569,-25.61806 c -3.16732,-0.27978 -4.45655,-0.88193 -11.186448,-5.22481 -31.016595,-20.01537 -30.051605,-19.331 -31.536145,-22.36529 -1.01627,-2.07718 -1.16374,-3.48924 -1.70351,-16.31111 -0.536,-12.73238 -0.52951,-12.81729 1.0421,-13.63 0.49104,-0.25393 1.1091,-0.36922 1.48014,-0.27609 0.35037,0.0879 2.292795,1.17442 4.316485,2.4144 l 3.67945,2.25452 0.0868,9.31494 c 0.11261,12.08769 -0.29021,11.08306 6.0399,15.06347 1.96453,1.23531 6.8461,4.38614 10.84792,7.00184 16.203328,10.59093 14.730428,9.72246 17.133118,10.10227 1.70364,0.26931 3.9961,-0.0659 5.4207,-0.79271 0.58925,-0.30061 5.96531,-3.73285 11.94679,-7.62718 5.98149,-3.89434 12.35695,-7.99941 14.16769,-9.12238 3.58386,-2.2226 3.74034,-2.363 4.59176,-4.11975 0.55336,-1.14177 0.58081,-1.57265 0.669,-10.50072 l 0.092,-9.31009 3.615,-2.22301 c 1.98826,-1.22265 3.84154,-2.30486 4.11841,-2.40491 0.76253,-0.27554 2.17344,0.30034 2.70141,1.10262 0.53029,0.8058 0.53927,1.74474 0.10804,11.29757 -0.13795,3.05594 -0.3233,7.40172 -0.41189,9.65729 -0.0886,2.25557 -0.28358,4.75589 -0.43332,5.55625 -0.36644,1.95876 -1.57018,4.1569 -3.0775,5.61977 -1.01953,0.98946 -30.64673,20.40675 -34.71202,22.74981 -2.50355,1.44294 -5.66984,2.06709 -8.99583,1.7733 z m -0.73461,-16.37684 c -1.749,-0.62938 -1.84139,-0.68587 -10.647028,-6.51094 -6.88368,-4.55367 -9.66397,-6.69223 -9.46732,-7.28216 0.0476,-0.14287 1.06106,-0.65268 2.25208,-1.1329 4.56844,-1.84202 6.77315,-4.27986 7.35011,-8.12732 0.41008,-2.73462 -0.98159,-6.50837 -3.3597,-9.1104 -2.41221,-2.63934 -4.5394,-3.93698 -11.45499,-6.98781 -9.25214,-4.08161 -15.003065,-8.48424 -19.093285,-14.61689 -3.23297,-4.84734 -4.46242,-8.92619 -4.24042,-14.068088 0.14766,-3.419894 0.45619,-4.224209 1.1813,-3.079527 0.23046,0.363802 1.4395,1.682664 2.68675,2.930804 2.20532,2.206872 4.788505,3.949701 6.468125,4.363931 0.7482,0.18452 0.73979,0.16183 -0.50857,-1.370742 -3.680035,-4.517882 -4.882435,-7.903745 -4.882435,-13.748566 0,-6.204873 1.82977,-11.869062 5.592105,-17.310843 1.80214,-2.606569 4.07651,-5.234584 4.32017,-4.991903 0.0925,0.09211 0.20563,1.997109 0.25145,4.233333 0.12037,5.875665 1.05009,9.59311 3.64987,14.593734 3.23,6.212863 9.61512,12.158701 17.07122,15.896754 1.34316,0.673382 2.62308,1.224332 2.84427,1.224332 0.30692,0 0.40216,-0.317547 0.40216,-1.340937 0,-0.737515 0.19182,-2.653098 0.42628,-4.25685 0.23749,-1.624572 0.32537,-3.012433 0.19843,-3.13386 -0.12531,-0.119871 -1.19135,-0.586963 -2.36898,-1.037981 -5.63267,-2.157243 -11.23265,-7.471063 -13.08545,-12.41679 -1.04131,-2.779588 -1.35428,-4.527681 -1.37374,-7.673094 -0.0215,-3.478991 0.30059,-5.348399 1.4294,-8.295668 1.63341,-4.26476 4.44381,-7.675152 11.06989,-13.433159 4.41893,-3.840013 7.26256,-6.801284 8.522038,-8.874614 2.5183,-4.14558 3.14638,-9.01025 1.70318,-13.19177 -0.39577,-1.14672 -0.67774,-2.12678 -0.62661,-2.17791 0.19652,-0.19652 2.88167,0.94396 4.47535,1.90083 2.09032,1.25507 5.87815,5.04516 7.06611,7.07032 1.52025,2.59164 2.66902,6.38166 2.85384,9.415396 0.19818,3.252962 -0.14688,5.540344 -1.52883,10.134462 -1.37432,4.568732 -1.69119,6.658157 -1.29741,8.555 0.16773,0.807934 0.57189,1.779298 0.89814,2.158588 l 0.59319,0.689617 1.27325,-1.474798 c 3.61178,-4.183517 6.16154,-8.251428 7.30143,-11.64878 0.91741,-2.734249 1.28234,-2.798342 2.82543,-0.49623 2.16172,3.22504 2.73785,6.800734 2.43818,15.132395 -0.2472,6.872874 0.46233,9.683144 3.57023,14.140783 0.95516,1.369981 1.73665,2.694313 1.73665,2.942961 0,0.820221 -2.85304,4.758444 -4.72991,6.528996 -3.23716,3.053768 -6.89225,4.847247 -11.56657,5.675474 -2.49263,0.44166 -2.51896,0.454225 -2.35427,1.123491 0.23189,0.942329 1.83484,3.768935 2.45627,4.331319 0.49449,0.44751 0.60174,0.42769 2.73219,-0.504715 5.48686,-2.401368 10.28637,-5.68354 14.13728,-9.667857 6.1231,-6.335217 8.83711,-12.981751 8.9526,-21.924619 0.0594,-4.600242 0.17086,-4.697698 2.42076,-2.116667 3.79537,4.353979 6.3057,9.374655 7.40023,14.800514 0.6873,3.407163 0.45618,9.204234 -0.48082,12.060272 -0.81231,2.475959 -2.19983,4.877687 -3.99276,6.911277 -0.70157,0.795735 -1.19517,1.527205 -1.0969,1.625485 0.0983,0.0983 1.18797,-0.33812 2.42152,-0.96976 1.66084,-0.850443 2.81361,-1.707326 4.44242,-3.302184 1.20978,-1.184551 2.44708,-2.510917 2.74957,-2.947479 0.45125,-0.65128 0.61225,-0.732285 0.89693,-0.451307 0.47557,0.469368 0.6288,5.875083 0.23124,8.15799 -0.88268,5.06873 -5.22518,11.95302 -10.33228,16.38007 -3.57623,3.10003 -7.85836,5.54782 -15.44262,8.82748 -4.72356,2.04261 -6.22369,2.94735 -8.37901,5.05347 -1.27865,1.24947 -2.04266,2.29488 -2.79365,3.82264 -0.97085,1.97505 -1.03368,2.24842 -1.03368,4.49792 0,5.0054 2.15357,7.45639 8.92969,10.16289 1.68182,0.67175 0.78174,1.48076 -8.40052,7.55056 -9.14431,6.0447 -9.37505,6.18601 -11.07986,6.7852 -1.82482,0.64137 -2.81445,0.64069 -4.60371,-0.003 z"
         id="path97" /><path
         style="fill:#fa8f1a"
         d="m 40.560627,219.37779 c -3.2436,-1.05453 -5.23687,-2.6666 -6.7065,-5.42392 -3.17884,-5.9641 -1.50773,-14.27405 3.54489,-17.62778 4.1315,-2.74234 10.22365,-3.18378 14.57277,-1.05595 2.08623,1.02069 2.13695,1.15815 1.12676,3.05346 -0.47728,0.89546 -1.01718,1.68544 -1.19979,1.75551 -0.18261,0.0701 -1.1023,-0.18075 -2.04374,-0.55738 -1.39367,-0.55756 -2.15024,-0.6848 -4.07173,-0.6848 -2.11262,0 -2.53305,0.0865 -4.01062,0.82482 -1.78881,0.89388 -2.85354,2.09614 -3.60961,4.07587 -0.34073,0.89219 -0.41832,1.78592 -0.33962,3.91189 0.0928,2.50777 0.1734,2.87099 0.8961,4.03993 0.96007,1.55289 2.65907,2.90163 4.16732,3.30822 1.45658,0.39266 5.81024,0.2079 6.38736,-0.27107 0.35277,-0.29278 0.41977,-0.78569 0.3581,-2.6348 l -0.0759,-2.27465 -2.38125,-0.13229 -2.38125,-0.1323 -0.0788,-1.80975 c -0.0482,-1.10645 0.0415,-1.95473 0.23083,-2.18281 0.24398,-0.29397 1.24229,-0.3722 4.70899,-0.36901 2.41966,0.002 4.55054,0.1 4.73529,0.21726 0.25874,0.16422 0.31953,1.57641 0.26459,6.14666 l -0.0713,5.93344 -1.32292,0.71595 c -3.42436,1.85323 -9.01912,2.3702 -12.7,1.1735 z m 92.047223,0.0745 c -2.03624,-0.70066 -3.97681,-2.15567 -4.9171,-3.68677 -1.40603,-2.28945 -1.55196,-3.56059 -1.47506,-12.84868 l 0.0699,-8.44549 h 2.51354 2.51354 l 0.13229,8.59896 c 0.14249,9.26151 0.1631,9.39752 1.63212,10.76914 2.52464,2.35725 6.97693,1.64841 8.64563,-1.37644 0.37361,-0.67725 0.45729,-2.05584 0.57017,-9.3927 l 0.13229,-8.59896 h 2.51354 2.51354 v 9.26674 9.26675 l -0.86533,1.75697 c -1.02201,2.07509 -2.18426,3.17065 -4.54609,4.28523 -1.57734,0.74437 -2.00455,0.82393 -4.77503,0.88928 -2.52978,0.0597 -3.31501,-0.0219 -4.65798,-0.48403 z M 21.907507,207.03901 v -12.71916 l 2.57968,0.0757 2.57969,0.0757 v 12.5677 12.56771 l -2.57969,0.0757 -2.57968,0.0757 z m 38.4175,12.3825 c -0.37189,-0.37188 -0.46069,-24.18257 -0.0924,-24.76317 0.15614,-0.24612 0.83907,-0.32037 2.43361,-0.26458 l 2.21655,0.0776 5.863465,8.0587 c 3.22491,4.43229 5.99576,8.10281 6.15745,8.15671 0.21036,0.0701 0.3139,-2.22231 0.36398,-8.05871 l 0.07,-8.1567 h 2.51354 2.51355 v 12.5677 12.56771 h -2.36326 -2.36325 l -4.51591,-5.98094 c -2.48375,-3.28952 -5.17076,-6.80186 -5.97113,-7.80521 l -1.4552,-1.82427 -0.0703,7.51857 c -0.0469,5.00732 -0.168135,7.63641 -0.363125,7.87136 -0.38313,0.46164 -4.48193,0.49093 -4.93757,0.0353 z m 28.382515,-0.003 c -0.0718,-0.18739 -0.0996,-5.87712 -0.0617,-12.64384 l 0.069,-12.30312 h 2.51354 2.51354 v 12.56766 12.56771 l -2.45187,0.0761 c -1.81257,0.0563 -2.48592,-0.0127 -2.58248,-0.26458 z m 11.906248,0 c -0.0718,-0.18739 -0.0996,-5.87712 -0.0617,-12.64384 l 0.069,-12.30312 h 2.51354 2.51354 l 0.13229,5.55625 c 0.0846,3.55389 0.22764,5.5156 0.39687,5.44346 0.14553,-0.062 2.2129,-2.50281 4.59417,-5.42396 2.38128,-2.92114 4.46487,-5.39864 4.63021,-5.50556 0.42115,-0.27232 6.19191,-0.25202 6.36149,0.0224 0.0764,0.12368 -2.11919,2.8126 -4.87917,5.97539 -2.75999,3.16278 -5.01815,5.83705 -5.01815,5.94283 0,0.10577 2.377,2.98302 5.28223,6.39389 2.90523,3.41086 5.28648,6.3504 5.29167,6.5323 0.007,0.24667 -0.79487,0.33073 -3.15526,0.33073 -2.94015,0 -3.2043,-0.0422 -3.7228,-0.59531 -0.30696,-0.32743 -2.53609,-3.00633 -4.95362,-5.95313 -2.41753,-2.9468 -4.49046,-5.35781 -4.60651,-5.35781 -0.11606,0 -0.24305,2.64914 -0.28221,5.88698 l -0.0712,5.88698 -2.45187,0.0761 c -1.81257,0.0563 -2.48592,-0.0127 -2.58248,-0.26459 z m 53.18511,0.0101 c -0.074,-0.19293 -0.10346,-5.88719 -0.0655,-12.65391 l 0.0689,-12.30313 6.08542,-0.0791 c 6.93148,-0.0901 8.40159,0.14238 10.48272,1.65775 3.19833,2.32886 3.35361,7.11968 0.31211,9.62972 -1.10144,0.90898 -1.08603,0.95571 0.62859,1.90579 0.41108,0.22778 1.08693,1.04002 1.50188,1.80496 1.96153,3.61592 0.18175,7.93514 -3.94511,9.57414 -1.47718,0.58667 -1.97427,0.63 -8.25319,0.71943 -5.372,0.0765 -6.70769,0.0264 -6.81582,-0.25564 z m 13.14833,-4.8487 c 2.1382,-1.59471 1.51523,-4.94503 -1.05974,-5.69934 -0.53498,-0.15672 -2.28237,-0.24817 -3.8831,-0.20322 l -2.91042,0.0817 -0.0756,2.89341 c -0.0416,1.59138 -0.012,3.05913 0.0657,3.26166 0.11327,0.29518 0.83694,0.35105 3.64747,0.28159 3.00918,-0.0744 3.60673,-0.16166 4.21567,-0.61583 z m -1.10931,-10.31724 c 1.09979,-0.56873 1.59042,-1.40985 1.59042,-2.72657 0,-2.3206 -1.71998,-3.11014 -6.34999,-2.91488 l -1.98438,0.0837 -0.0763,2.627 c -0.042,1.44485 -0.0159,2.7843 0.0578,2.97656 0.20076,0.52317 5.73462,0.48569 6.76241,-0.0458 z m 12.82559,15.14972 c -0.0705,-0.18401 -0.0972,-5.87097 -0.0593,-12.63769 l 0.069,-12.30313 8.27858,-0.0699 8.27859,-0.0699 -0.0765,2.31889 c -0.0533,1.61541 -0.17683,2.32892 -0.40723,2.35196 -0.1819,0.0182 -2.71614,0.048 -5.63165,0.0662 l -5.30092,0.0331 0.0754,2.71198 0.0754,2.71198 4.7625,0.13229 4.7625,0.13229 v 2.11667 2.11667 l -4.7625,0.13229 -4.7625,0.13229 -0.0751,2.84427 -0.0751,2.84427 h 5.70779 5.7078 l -0.0764,2.31511 -0.0764,2.3151 -8.14277,0.07 c -6.37164,0.0548 -8.17066,-0.003 -8.27102,-0.26458 z m -75.01747,-38.97201 c -1.60635,-0.5174 -3.672158,-1.72609 -10.451038,-6.11484 -4.64692,-3.00848 -10.05629,-6.5037 -12.02082,-7.76715 -15.35582,-9.87581 -15.57179,-10.0394 -16.956865,-12.84493 -1.0749,-2.17726 -1.23522,-3.55164 -1.69606,-14.53984 -0.559,-13.32852 -0.55152,-13.76022 0.25236,-14.56411 1.12683,-1.12683 1.99004,-0.90098 5.966665,1.56111 l 3.57036,2.21055 0.14246,9.36497 c 0.14927,9.8122 0.15005,9.81865 1.4053,11.67249 0.26814,0.396 1.5774,1.40423 2.90946,2.24051 1.33207,0.83627 7.42257,4.78763 13.53445,8.78079 13.398678,8.75397 13.733568,8.96152 15.075958,9.34357 1.66053,0.47259 4.57068,0.35907 6.11226,-0.23843 0.73945,-0.28661 6.33539,-3.77381 12.43541,-7.74933 6.10002,-3.97553 12.60876,-8.16942 14.46387,-9.31976 3.30387,-2.0487 4.32036,-2.97876 4.99721,-4.57228 0.24092,-0.56722 0.37774,-3.45538 0.48117,-10.15758 l 0.14453,-9.365 3.57036,-2.21052 c 3.97663,-2.46206 4.83985,-2.68791 5.96667,-1.56109 0.60696,0.60696 0.6488,0.82758 0.63976,3.37344 -0.005,1.4982 -0.2301,7.30791 -0.49949,12.91046 -0.53601,11.14705 -0.6167,11.64078 -2.32365,14.21744 -0.50469,0.76183 -1.35369,1.72371 -1.88668,2.13751 -1.87702,1.45728 -33.89693,22.03375 -35.15065,22.58833 -3.33371,1.47466 -7.28564,1.69798 -10.683,0.60369 z m 2.63869,-15.57759 c -1.68534,-0.64723 -2.64447,-1.21655 -9.103258,-5.40353 -8.66364,-5.61629 -10.98021,-7.33046 -10.98021,-8.12491 0,-0.16674 0.836,-0.63116 1.85777,-1.03204 1.8817,-0.73826 4.30025,-2.35743 5.60253,-3.75079 1.61374,-1.72661 2.34982,-4.80921 1.82491,-7.64248 -0.49017,-2.64578 -1.45217,-4.25786 -4.13687,-6.93241 -2.59992,-2.59007 -3.38703,-3.04447 -12.55667,-7.24888 -5.93647,-2.72195 -9.92459,-5.42253 -13.512615,-9.15013 -3.92587,-4.07859 -6.58208,-8.77857 -7.56201,-13.38046 -0.40675,-1.91016 -0.39362,-7.657021 0.0184,-8.069074 0.0987,-0.09871 0.67278,0.411628 1.27571,1.134077 1.66939,2.000294 3.61626,3.76565 5.22841,4.740927 1.718225,1.03946 4.191175,2.12692 4.388345,1.92975 0.0764,-0.0764 -0.68651,-1.16769 -1.69536,-2.425083 -3.361195,-4.189289 -4.546435,-7.571037 -4.543075,-12.962394 10e-4,-1.759352 0.12493,-3.956423 0.27518,-4.88238 0.37638,-2.319549 1.71785,-6.412512 2.8302,-8.635192 1.546725,-3.090681 5.573085,-8.598891 6.285325,-8.598586 0.16267,7e-5 0.27166,1.401421 0.28295,3.637891 0.0286,5.673223 0.95901,9.512607 3.50899,14.480786 3.35527,6.537146 10.02805,12.741881 17.77976,16.532645 1.48698,0.727168 2.80783,1.257703 2.93522,1.178973 0.12739,-0.0787 0.23233,-0.820731 0.23318,-1.648887 8.6e-4,-0.828157 0.17945,-2.685991 0.39688,-4.12852 0.55469,-3.680178 0.60326,-3.484289 -0.99375,-4.007364 -4.95053,-1.621461 -10.35944,-5.825725 -12.95637,-10.070794 -2.45415,-4.011683 -3.44096,-9.865492 -2.47088,-14.657369 1.3032,-6.437328 3.98689,-10.262457 12.11636,-17.269734 6.26358,-5.398964 8.754808,-8.405756 10.186398,-12.294506 1.18459,-3.21781 1.07664,-8.41963 -0.22778,-10.97652 -0.2932,-0.5747 -0.48721,-1.09079 -0.43115,-1.14685 0.0561,-0.0561 0.95626,0.30751 2.00046,0.80793 6.08629,2.91677 9.66191,7.09917 11.58975,13.5565 0.56084,1.87853 0.69635,2.88436 0.7054,5.235655 0.0121,3.137809 -0.22049,4.370413 -1.80193,9.550347 -1.30218,4.265208 -1.51909,7.608276 -0.60779,9.367361 0.33924,0.654844 0.81282,1.226745 1.05241,1.270892 0.27787,0.0512 1.12363,-0.754563 2.33562,-2.225165 3.48286,-4.226021 5.84271,-8.175763 6.75052,-11.298508 0.26695,-0.918267 0.58416,-1.505552 0.8132,-1.505552 0.6043,0 2.16067,2.36034 2.87863,4.365625 1.08173,3.021316 1.24438,4.717853 1.17586,12.265523 -0.0599,6.602833 -0.0279,7.157928 0.50549,8.768852 0.56814,1.715701 2.14702,4.5451 3.88803,6.96745 0.90526,1.259528 0.91268,1.291604 0.48976,2.116666 -1.3331,2.600704 -4.31241,5.94928 -6.80505,7.648511 -3.00866,2.050995 -8.06585,3.897416 -10.69004,3.903019 -0.54367,0.0012 -0.92779,0.157168 -1.02764,0.41737 -0.30896,0.805124 2.54814,5.669898 3.32995,5.669898 0.12213,0 2.11161,-0.951139 4.42106,-2.113645 4.97885,-2.506196 8.05746,-4.657754 11.44358,-7.99761 2.88175,-2.842364 4.61915,-5.193981 6.31083,-8.541868 2.42582,-4.800782 3.28907,-8.520689 3.2969,-14.207019 0.004,-2.802856 0.0837,-3.661205 0.33482,-3.600185 0.53845,0.130833 2.99528,3.084366 4.65377,5.594647 5.17467,7.832342 6.36276,18.443195 2.84659,25.423006 -0.76413,1.516845 -2.63496,4.086411 -3.75966,5.163844 -0.52348,0.50149 -0.95179,1.00977 -0.95179,1.12952 0,0.38318 1.39534,-0.0908 3.57188,-1.21323 1.66041,-0.856296 2.70702,-1.679998 4.85547,-3.821372 1.50635,-1.501381 2.81604,-2.652868 2.91042,-2.55886 0.31864,0.317372 0.35407,5.972852 0.0484,7.728052 -0.44483,2.55435 -1.85177,5.80254 -3.78326,8.73434 -4.66323,7.07831 -10.08135,11.16107 -20.98905,15.81606 -4.76704,2.03439 -6.97533,3.30245 -8.87973,5.09895 -3.90606,3.68479 -5.23161,7.67441 -4.01296,12.07822 0.37309,1.3482 0.70124,1.85873 2.05198,3.19236 1.56663,1.54677 4.22725,3.16176 6.30131,3.82486 0.5457,0.17447 0.99219,0.4786 0.99219,0.67586 0,0.67546 -2.14545,2.2035 -12.80719,9.12155 -2.75109,1.7851 -5.62917,3.53276 -6.39573,3.8837 -1.73666,0.79507 -3.64097,0.99342 -4.89903,0.51028 z"
         id="path96" /><path
         style="fill:#eb4d28"
         d="m 40.957497,219.50412 c -5.63398,-1.82361 -8.71386,-6.14792 -8.72733,-12.25365 -0.0172,-7.79013 5.38435,-13.21123 13.22525,-13.27317 1.23693,-0.01 2.9038,0.14355 3.70417,0.34072 1.54151,0.37976 4.34322,1.67331 4.6303,2.13782 0.16668,0.26969 -1.5943,3.70401 -1.89926,3.70401 -0.0844,0 -0.97865,-0.29766 -1.98719,-0.66146 -2.24933,-0.81138 -5.48894,-0.90573 -7.50556,-0.2186 -1.74562,0.59479 -3.62326,2.52753 -4.22993,4.35407 -0.52645,1.58496 -0.59905,4.83694 -0.14519,6.50288 0.578,2.12162 2.68008,4.25898 4.75571,4.83553 1.24788,0.34663 4.65518,0.34106 5.9181,-0.01 l 0.99218,-0.27554 v -2.50108 -2.5011 h -2.35294 c -1.9015,0 -2.38375,-0.0803 -2.51354,-0.41852 -0.27081,-0.70572 -0.1781,-3.4269 0.12715,-3.73215 0.32789,-0.32789 9.23118,-0.18863 9.57327,0.14974 0.11206,0.11083 0.17159,2.81255 0.13229,6.00382 l -0.0714,5.80231 -1.71254,0.84253 c -0.9419,0.46339 -2.45465,1.02893 -3.36167,1.25677 -2.27655,0.57185 -6.65666,0.5282 -8.55184,-0.0852 z m 91.650353,-0.0519 c -2.03624,-0.70066 -3.97681,-2.15567 -4.9171,-3.68676 -1.40603,-2.28945 -1.55196,-3.5606 -1.47506,-12.84869 l 0.0699,-8.44549 h 2.51354 2.51354 l 0.13229,8.59896 c 0.14249,9.26151 0.1631,9.39752 1.63212,10.76914 2.52464,2.35725 6.97693,1.64842 8.64563,-1.37644 0.37361,-0.67724 0.45729,-2.05584 0.57017,-9.3927 l 0.13229,-8.59896 h 2.51354 2.51354 v 9.26674 9.26675 l -0.86533,1.75697 c -1.02201,2.07509 -2.18426,3.17065 -4.54609,4.28523 -1.57734,0.74437 -2.00455,0.82393 -4.77503,0.88928 -2.52978,0.0597 -3.31501,-0.0219 -4.65798,-0.48403 z M 21.907507,207.02943 v -12.70958 l 2.57968,0.0757 2.57969,0.0757 0.0688,12.41817 c 0.0541,9.75907 -0.003,12.46348 -0.26458,12.6298 -0.18336,0.1164 -1.37518,0.21346 -2.64848,0.21569 l -2.31511,0.004 z m 38.42744,12.38845 c -0.30855,-0.37177 -0.47325,-23.86187 -0.1728,-24.64484 0.13602,-0.35446 0.57238,-0.43403 2.38041,-0.43403 h 2.21386 l 1.528145,2.09436 c 0.84048,1.1519 3.53351,4.84284 5.98451,8.20208 2.45101,3.35925 4.56264,6.10773 4.69253,6.10773 0.13186,0 0.26707,-3.59342 0.30613,-8.13594 l 0.07,-8.13594 h 2.51355 2.51354 l 0.0688,12.41817 c 0.0541,9.75908 -0.003,12.46348 -0.26459,12.6298 -0.18335,0.1164 -1.25037,0.21346 -2.37115,0.21569 l -2.03777,0.004 -5.8467,-7.73906 c -3.21568,-4.25648 -5.98962,-7.73906 -6.16431,-7.73906 -0.236745,0 -0.351285,1.95344 -0.449895,7.67291 l -0.13229,7.67292 -2.27465,0.0759 c -1.61058,0.0537 -2.35716,-0.0236 -2.55728,-0.26469 z m 28.574445,0.013 c -0.25002,-0.25002 -0.32594,-3.16098 -0.32284,-12.37866 0.002,-6.62847 0.10159,-12.20552 0.22081,-12.39344 0.15701,-0.24749 0.86697,-0.32042 2.57563,-0.26458 l 2.35888,0.0771 v 12.56771 12.56771 l -2.2528,0.0755 c -1.52567,0.0512 -2.3583,-0.03 -2.57968,-0.25135 z m 11.704378,-0.0126 c -0.0718,-0.18739 -0.0996,-5.87712 -0.0617,-12.64384 l 0.069,-12.30312 h 2.51354 2.51354 l 0.13229,5.55625 c 0.0846,3.55389 0.22764,5.5156 0.39687,5.44346 0.14553,-0.062 2.2129,-2.50281 4.59417,-5.42396 2.38128,-2.92114 4.46487,-5.39864 4.63021,-5.50556 0.42115,-0.27232 6.19191,-0.25202 6.36149,0.0224 0.0764,0.12368 -2.11919,2.8126 -4.87917,5.97539 -2.75999,3.16278 -5.01815,5.83705 -5.01815,5.94283 0,0.10577 2.377,2.98302 5.28223,6.39389 2.90523,3.41086 5.28648,6.3504 5.29167,6.5323 0.007,0.24668 -0.79487,0.33073 -3.15526,0.33073 -2.94015,0 -3.2043,-0.0422 -3.7228,-0.59531 -0.30696,-0.32743 -2.53609,-3.00633 -4.95362,-5.95313 -2.41753,-2.9468 -4.49046,-5.35781 -4.60651,-5.35781 -0.11606,0 -0.24305,2.64914 -0.28221,5.88698 l -0.0712,5.88698 -2.45187,0.0761 c -1.81257,0.0563 -2.48592,-0.0127 -2.58248,-0.26459 z m 53.18511,0.0101 c -0.074,-0.19293 -0.10346,-5.88719 -0.0655,-12.65391 l 0.0689,-12.30313 6.08542,-0.0791 c 6.93148,-0.0901 8.40159,0.14238 10.48272,1.65775 3.19833,2.32887 3.35361,7.11968 0.31211,9.62972 -1.10144,0.90898 -1.08603,0.95571 0.62859,1.90579 0.41108,0.22779 1.08693,1.04002 1.50188,1.80496 1.96153,3.61592 0.18175,7.93514 -3.94511,9.57414 -1.47718,0.58667 -1.97427,0.63 -8.25319,0.71943 -5.372,0.0765 -6.70769,0.0264 -6.81582,-0.25564 z m 13.14833,-4.8487 c 2.1382,-1.5947 1.51523,-4.94503 -1.05974,-5.69934 -0.53498,-0.15672 -2.28237,-0.24816 -3.8831,-0.20322 l -2.91042,0.0817 -0.0756,2.89342 c -0.0416,1.59137 -0.012,3.05912 0.0657,3.26165 0.11327,0.29518 0.83694,0.35105 3.64747,0.28159 3.00918,-0.0744 3.60673,-0.16166 4.21567,-0.61582 z m -1.10931,-10.31724 c 1.09979,-0.56872 1.59042,-1.40985 1.59042,-2.72657 0,-2.3206 -1.71998,-3.11013 -6.34999,-2.91488 l -1.98438,0.0837 -0.0763,2.627 c -0.042,1.44485 -0.0159,2.78431 0.0578,2.97656 0.20076,0.52318 5.73462,0.48569 6.76241,-0.0458 z m 12.82559,15.14972 c -0.0705,-0.18401 -0.0972,-5.87097 -0.0593,-12.63769 l 0.069,-12.30313 8.27858,-0.0699 8.27859,-0.0699 -0.0765,2.31889 c -0.0533,1.61541 -0.17683,2.32892 -0.40723,2.35196 -0.1819,0.0182 -2.71614,0.048 -5.63165,0.0661 l -5.30092,0.0331 0.0754,2.71198 0.0754,2.71198 4.7625,0.13229 4.7625,0.13229 v 2.11667 2.11667 l -4.7625,0.13229 -4.7625,0.13229 -0.0751,2.84427 -0.0751,2.84427 h 5.70779 5.7078 l -0.0764,2.31511 -0.0764,2.3151 -8.14277,0.07 c -6.37164,0.0548 -8.17066,-0.003 -8.27102,-0.26458 z m -75.01747,-38.97197 c -1.60635,-0.5174 -3.672158,-1.72609 -10.451038,-6.11484 -4.64692,-3.00848 -10.05629,-6.5037 -12.02082,-7.76715 -15.35582,-9.87581 -15.57179,-10.0394 -16.956865,-12.84493 -1.0749,-2.17726 -1.23522,-3.55164 -1.69606,-14.53984 -0.559,-13.32852 -0.55152,-13.76022 0.25236,-14.56411 1.12683,-1.12683 1.99004,-0.90098 5.966665,1.56111 l 3.57036,2.21055 0.14246,9.36497 c 0.14927,9.8122 0.15005,9.81865 1.4053,11.67249 0.26814,0.396 1.5774,1.40423 2.90946,2.24051 1.33207,0.83627 7.42257,4.78763 13.53445,8.78079 13.398678,8.75397 13.733568,8.96152 15.075958,9.34357 1.66053,0.47259 4.57068,0.35907 6.11226,-0.23843 0.73945,-0.28661 6.33539,-3.77381 12.43541,-7.74933 6.10002,-3.97553 12.60876,-8.16942 14.46387,-9.31976 3.30387,-2.0487 4.32036,-2.97876 4.99721,-4.57228 0.24092,-0.56722 0.37774,-3.45538 0.48117,-10.15758 l 0.14453,-9.365 3.57036,-2.21052 c 3.97663,-2.46206 4.83985,-2.68791 5.96667,-1.56109 0.60696,0.60696 0.6488,0.82758 0.63976,3.37344 -0.005,1.4982 -0.2301,7.30791 -0.49949,12.91046 -0.53601,11.14705 -0.6167,11.64078 -2.32365,14.21744 -0.50469,0.76183 -1.35369,1.72371 -1.88668,2.13751 -1.87702,1.45728 -33.89693,22.03375 -35.15065,22.58833 -3.33371,1.47466 -7.28564,1.69798 -10.683,0.60369 z m 2.10585,-15.81275 c -0.81606,-0.34421 -1.94716,-0.90728 -2.51354,-1.25126 -2.89962,-1.76106 -14.937778,-9.85725 -15.912608,-10.70193 -1.07328,-0.92999 -1.45756,-1.72686 -0.83273,-1.72686 0.16045,0 1.26178,-0.45474 2.44739,-1.01053 5.13474,-2.40705 7.42761,-6.2698 6.54607,-11.02801 -0.48973,-2.64341 -1.4526,-4.25829 -4.12853,-6.92415 -2.28546,-2.27688 -2.66166,-2.53527 -6.11113,-4.19747 -13.54248,-6.52569 -14.84933,-7.29098 -18.69021,-10.94488 -5.446175,-5.18107 -8.736775,-11.30965 -9.115495,-16.97716 -0.16253,-2.432295 0.0923,-5.803215 0.43863,-5.803215 0.11624,0 0.73184,0.675961 1.36801,1.502135 0.63615,0.826174 1.93056,2.142487 2.87644,2.925141 1.64058,1.357464 5.472575,3.510219 6.248345,3.510219 0.61281,0 0.41156,-0.65183 -0.45444,-1.47185 -1.25155,-1.185086 -3.070145,-3.839345 -3.930165,-5.736083 -1.26364,-2.786896 -1.69774,-5.566095 -1.5186,-9.722415 0.30245,-7.017308 2.78375,-13.058452 7.788955,-18.96348 l 1.52319,-1.797023 0.16439,4.094907 c 0.18691,4.65599 0.67553,7.292427 1.98486,10.709491 3.18039,8.300143 9.81963,15.188803 19.1899,19.910819 1.56537,0.788844 2.97061,1.357324 3.12276,1.263294 0.15215,-0.094 0.27663,-0.863394 0.27663,-1.709694 0,-1.438228 0.67956,-6.225098 1.35469,-9.542544 0.16288,-0.800365 0.82343,-3.095831 1.46788,-5.101037 l 1.171738,-3.645829 -1.447348,-1.322799 c -1.78073,-1.627489 -2.68665,-3.132351 -3.20223,-5.319403 -0.47309,-2.006776 -0.5257,-4.612241 -0.0985,-4.876284 0.17539,-0.108395 0.51785,0.104509 0.80734,0.501907 0.6776,0.930192 2.94392,2.192527 4.808068,2.678075 0.83881,0.218482 2.91582,0.47321 4.61557,0.566062 7.02975,0.38401 10.18879,1.887602 11.20633,5.33383 0.4109,1.391631 0.45716,1.430895 2.36722,2.009356 2.10024,0.636055 3.80699,2.193747 4.32875,3.950706 0.44938,1.513223 0.51942,2.579583 0.16944,2.579583 -0.12775,0 -0.6879,-0.190377 -1.24479,-0.423059 -1.52219,-0.636009 -4.47215,-0.427523 -5.63149,0.397999 -1.2335,0.878328 -2.41597,3.439838 -2.41624,5.234162 -2.6e-4,1.725562 0.65469,4.591761 1.37325,6.009639 0.76841,1.516232 2.10059,3.33374 2.44171,3.33124 0.60831,-0.005 5.96364,-2.619453 8.35567,-4.080072 7.85708,-4.797684 12.99,-10.787757 15.69412,-18.314914 1.05451,-2.935317 1.55161,-5.968138 1.65854,-10.118755 0.054,-2.094703 0.14741,-3.857842 0.20765,-3.918086 0.134,-0.133995 2.15665,2.189889 3.7521,4.31089 3.47236,4.616184 5.6582,11.165511 5.66936,16.986798 0.0116,6.037041 -1.409,9.925852 -5.21933,14.287909 -0.80002,0.91587 -1.38429,1.73551 -1.29838,1.82142 0.27351,0.27351 3.2217,-0.97384 4.91169,-2.078075 1.7311,-1.131102 4.24505,-3.449898 5.39084,-4.972361 0.37998,-0.504885 0.78645,-0.82224 0.90328,-0.705233 0.11683,0.117007 0.21242,1.899314 0.21242,3.960681 0,3.190658 -0.0922,4.042988 -0.62024,5.732308 -1.93455,6.18931 -7.26395,12.97001 -13.33296,16.96377 -2.75861,1.81533 -6.66015,3.83404 -10.94013,5.66058 -4.76926,2.03533 -6.97727,3.30315 -8.8819,5.09987 -3.89151,3.67106 -5.23676,7.69454 -4.02118,12.02685 0.74912,2.66983 3.78096,5.36653 7.70005,6.84889 0.90951,0.34401 1.65365,0.76795 1.65365,0.94209 0,0.17413 -0.71335,0.86552 -1.58521,1.5364 -2.50014,1.92381 -16.00164,10.68246 -17.58324,11.40654 -2.11373,0.9677 -3.6659,1.0503 -5.46634,0.2909 z m 7.29493,-83.254803 c 1.10519,-1.221218 -0.42966,-2.680468 -1.84436,-1.75352 -0.65008,0.42595 -0.81361,1.033462 -0.49893,1.853511 0.23259,0.606114 1.76339,0.540793 2.34329,-0.09999 z"
         id="path95" /><path
         style="fill:#e73716"
         d="m 43.735627,219.76073 c 1.32035,-0.15943 1.31894,-0.16008 -0.72853,-0.33498 -4.90107,-0.41866 -8.61176,-3.55601 -9.85606,-8.33321 -0.51156,-1.96399 -0.50658,-5.89758 0.01,-7.88073 1.60367,-6.15691 7.6316,-9.69872 14.74262,-8.66228 2.16994,0.31628 5.4893,1.62293 5.4893,2.16084 0,0.15537 -0.36009,0.92052 -0.80019,1.70034 l -0.80018,1.41785 -1.64721,-0.69275 c -1.40462,-0.59071 -2.03689,-0.69296 -4.29305,-0.69425 -2.13468,-0.001 -2.87845,0.10613 -3.8499,0.55562 -1.7603,0.81449 -3.04203,2.05719 -3.87848,3.76038 -0.66596,1.35605 -0.73819,1.7755 -0.73732,4.28145 8.2e-4,2.33372 0.0987,2.9943 0.61167,4.12946 1.20686,2.67052 3.72024,4.31087 6.96045,4.5427 1.91922,0.13732 4.2596,-0.30201 4.87218,-0.9146 0.49427,-0.49427 0.55104,-4.84187 0.0695,-5.32339 -0.19594,-0.19594 -1.15828,-0.3175 -2.51354,-0.3175 h -2.19604 v -1.71979 -1.71979 h 4.49792 4.49791 v 5.83742 5.83743 l -1.65364,0.74511 c -1.80569,0.81362 -3.83655,1.31616 -5.56927,1.37811 l -1.11146,0.0397 1.19062,0.1851 c 0.84263,0.13101 0.33996,0.18458 -1.71979,0.18328 -1.95915,-0.001 -2.47802,-0.054 -1.5875,-0.16156 z m 88.872223,-0.30848 c -2.03624,-0.70067 -3.97681,-2.15568 -4.9171,-3.68677 -1.40603,-2.28945 -1.55196,-3.56059 -1.47506,-12.84869 l 0.0699,-8.44549 h 2.51354 2.51354 l 0.13229,8.59896 c 0.14249,9.26151 0.1631,9.39753 1.63212,10.76915 2.52464,2.35724 6.97693,1.64841 8.64563,-1.37644 0.37361,-0.67725 0.45729,-2.05584 0.57017,-9.39271 l 0.13229,-8.59896 h 2.51354 2.51354 v 9.26675 9.26674 l -0.86533,1.75698 c -1.02201,2.07509 -2.18426,3.17065 -4.54609,4.28523 -1.57734,0.74437 -2.00455,0.82393 -4.77503,0.88928 -2.52978,0.0597 -3.31501,-0.0219 -4.65798,-0.48403 z M 21.907507,207.03901 c 0,-8.29027 0.0919,-12.7 0.26458,-12.7 0.14552,0 0.26458,0.11907 0.26458,0.26459 0,0.15434 0.88195,0.26458 2.11667,0.26458 h 2.11667 v 12.17083 12.17084 h -2.11667 c -1.23472,0 -2.11667,0.11024 -2.11667,0.26458 0,0.14552 -0.11906,0.26458 -0.26458,0.26458 -0.17271,0 -0.26458,-4.40972 -0.26458,-12.7 z m 78.706263,12.37926 c -0.0718,-0.18739 -0.0996,-5.87712 -0.0617,-12.64384 l 0.069,-12.30313 h 2.51354 2.51354 l 0.13229,5.55625 c 0.0846,3.5539 0.22764,5.51561 0.39687,5.44347 0.14553,-0.062 2.2129,-2.50281 4.59417,-5.42396 2.38128,-2.92114 4.46487,-5.39865 4.63021,-5.50556 0.42115,-0.27232 6.19191,-0.25202 6.36149,0.0224 0.0764,0.12368 -2.11919,2.8126 -4.87917,5.97538 -2.75999,3.16279 -5.01815,5.83706 -5.01815,5.94284 0,0.10577 2.377,2.98302 5.28223,6.39389 2.90523,3.41086 5.28648,6.3504 5.29167,6.5323 0.007,0.24667 -0.79487,0.33073 -3.15526,0.33073 -2.94015,0 -3.2043,-0.0422 -3.7228,-0.59532 -0.30696,-0.32742 -2.53609,-3.00632 -4.95362,-5.95312 -2.41753,-2.9468 -4.49046,-5.35781 -4.60651,-5.35781 -0.11606,0 -0.24305,2.64914 -0.28221,5.88698 l -0.0712,5.88698 -2.45187,0.0761 c -1.81257,0.0563 -2.48592,-0.0127 -2.58248,-0.26459 z m 53.18511,0.0101 c -0.074,-0.19293 -0.10346,-5.88719 -0.0655,-12.65391 l 0.0689,-12.30313 6.08542,-0.0791 c 6.93148,-0.0901 8.40159,0.14238 10.48272,1.65775 3.19833,2.32886 3.35361,7.11968 0.31211,9.62972 -1.10144,0.90898 -1.08603,0.95571 0.62859,1.90579 0.41108,0.22778 1.08693,1.04002 1.50188,1.80496 1.96153,3.61592 0.18175,7.93514 -3.94511,9.57414 -1.47718,0.58667 -1.97427,0.63 -8.25319,0.71943 -5.372,0.0765 -6.70769,0.0264 -6.81582,-0.25564 z m 13.14833,-4.84871 c 2.1382,-1.5947 1.51523,-4.94503 -1.05974,-5.69933 -0.53498,-0.15672 -2.28237,-0.24817 -3.8831,-0.20322 l -2.91042,0.0817 -0.0756,2.89341 c -0.0416,1.59138 -0.012,3.05913 0.0657,3.26166 0.11327,0.29518 0.83694,0.35105 3.64747,0.28158 3.00918,-0.0744 3.60673,-0.16166 4.21567,-0.61582 z m -1.10931,-10.31723 c 1.09979,-0.56873 1.59042,-1.40985 1.59042,-2.72657 0,-2.3206 -1.71998,-3.11014 -6.34999,-2.91488 l -1.98438,0.0837 -0.0763,2.627 c -0.042,1.44485 -0.0159,2.7843 0.0578,2.97656 0.20076,0.52317 5.73462,0.48569 6.76241,-0.0458 z m 12.82559,15.14971 c -0.0705,-0.18401 -0.0972,-5.87096 -0.0593,-12.63768 l 0.069,-12.30313 8.27858,-0.0699 8.27859,-0.0699 -0.0765,2.31889 c -0.0533,1.61541 -0.17683,2.32892 -0.40723,2.35196 -0.1819,0.0182 -2.71614,0.048 -5.63165,0.0661 l -5.30092,0.0331 0.0754,2.71198 0.0754,2.71198 4.7625,0.13229 4.7625,0.13229 v 2.11667 2.11666 l -4.7625,0.1323 -4.7625,0.13229 -0.0751,2.84427 -0.0751,2.84427 h 5.70779 5.7078 l -0.0764,2.3151 -0.0764,2.31511 -8.14277,0.07 c -6.37164,0.0548 -8.17066,-0.003 -8.27102,-0.26458 z M 60.536667,207.03901 v -12.17083 h 2.08608 2.08607 l 2.057145,2.84427 c 6.32833,8.7497 9.79248,13.36825 10.12164,13.49456 0.20417,0.0784 0.47644,-0.0237 0.60505,-0.22684 0.1286,-0.2031 0.23565,-3.91139 0.23788,-8.24064 l 0.004,-7.87135 h 2.11666 2.11667 v 12.17083 12.17084 h -2.08435 -2.0843 l -2.32444,-3.10886 c -6.15612,-8.23358 -9.73103,-12.76614 -10.068855,-12.76614 -0.3106,0 -0.37143,1.29996 -0.37143,7.9375 v 7.9375 h -2.24896 -2.24896 z m 28.574995,0 v -12.17083 h 2.11667 2.11666 v 12.17083 12.17084 h -2.11666 -2.11667 z m 14.534358,-26.59886 c -1.60635,-0.5174 -3.672158,-1.72609 -10.451038,-6.11484 -4.64692,-3.00848 -10.05629,-6.5037 -12.02082,-7.76715 -15.35582,-9.87581 -15.57179,-10.0394 -16.956865,-12.84493 -1.0749,-2.17726 -1.23522,-3.55164 -1.69606,-14.53984 -0.559,-13.32852 -0.55152,-13.76022 0.25236,-14.56411 1.12683,-1.12683 1.99004,-0.90098 5.966665,1.56111 l 3.57036,2.21055 0.14246,9.36497 c 0.14927,9.8122 0.15005,9.81865 1.4053,11.67249 0.26814,0.396 1.5774,1.40423 2.90946,2.24051 1.33207,0.83627 7.42257,4.78763 13.53445,8.78079 13.398678,8.75397 13.733568,8.96152 15.075958,9.34357 1.66053,0.47259 4.57068,0.35907 6.11226,-0.23843 0.73945,-0.28661 6.33539,-3.77381 12.43541,-7.74933 6.10002,-3.97553 12.60876,-8.16942 14.46387,-9.31976 3.30387,-2.0487 4.32036,-2.97876 4.99721,-4.57228 0.24092,-0.56722 0.37774,-3.45538 0.48117,-10.15758 l 0.14453,-9.365 3.57036,-2.21052 c 3.97663,-2.46206 4.83985,-2.68791 5.96667,-1.56109 0.60696,0.60696 0.6488,0.82758 0.63976,3.37344 -0.005,1.4982 -0.2301,7.30791 -0.49949,12.91046 -0.53601,11.14705 -0.6167,11.64078 -2.32365,14.21744 -0.50469,0.76183 -1.35369,1.72371 -1.88668,2.13751 -1.87702,1.45728 -33.89693,22.03375 -35.15065,22.58833 -3.33371,1.47466 -7.28564,1.69798 -10.683,0.60369 z m 2.10585,-16.07734 c -0.81606,-0.3442 -1.94716,-0.90835 -2.51354,-1.25367 -1.57873,-0.96252 -8.553028,-5.60215 -9.893338,-6.5815 -0.65484,-0.47849 -2.41101,-1.7508 -3.9026,-2.82735 -1.49159,-1.07656 -2.70748,-2.04708 -2.70198,-2.15672 0.005,-0.10964 1.21528,-0.77628 2.68839,-1.48142 3.40891,-1.63175 5.23838,-3.34619 5.84783,-5.48015 0.66388,-2.32451 0.77747,-3.73289 0.44773,-5.55151 -0.44288,-2.44272 -1.37305,-4.21151 -3.36862,-6.40573 -2.53882,-2.79154 -5.20668,-4.60242 -9.63073,-6.53711 -8.09601,-3.54049 -12.32998,-6.08462 -16.07936,-9.66187 -4.044345,-3.85868 -7.115885,-8.79056 -8.228265,-13.2119 -0.51657,-2.05319 -0.7653,-7.766667 -0.35594,-8.176034 0.0938,-0.09384 0.59529,0.374463 1.11433,1.040672 1.44257,1.851597 4.15151,3.969152 6.745595,5.272962 3.66653,1.84284 4.66664,1.47854 2.38498,-0.86875 -1.57458,-1.619884 -3.626075,-4.732136 -4.291365,-6.510277 -0.95489,-2.552188 -1.17457,-4.439593 -1.02917,-8.842263 0.11405,-3.453482 0.25694,-4.571986 0.8363,-6.54638 1.24008,-4.2261 3.884525,-9.065797 6.692565,-12.248348 l 1.00219,-1.135848 0.0468,3.384806 c 0.0496,3.587209 0.45811,6.046224 1.55695,9.371177 2.89169,8.749918 9.91583,16.370007 19.64796,21.314957 3.93242,1.998076 4.282,1.922036 4.27908,-0.930779 -0.004,-3.933491 1.48913,-11.681126 3.050888,-15.830343 0.36014,-0.956816 0.64753,-1.933849 0.63864,-2.171185 -0.009,-0.237336 -0.51491,-0.792013 -1.124478,-1.232616 -1.37405,-0.993175 -2.69443,-2.920835 -3.22975,-4.715216 -0.4802,-1.609576 -0.83208,-5.199313 -0.50967,-5.199313 0.12357,0 0.58752,0.348933 1.03101,0.775407 1.88052,1.808367 5.527188,2.900635 9.747188,2.919529 2.39475,0.01072 5.70462,0.635133 7.05327,1.330609 1.43399,0.739476 2.67717,2.196073 3.20401,3.754022 0.52059,1.539447 0.65664,1.66302 2.27476,2.066112 1.57503,0.392359 3.58426,1.820298 4.09836,2.912654 0.2397,0.509323 0.51588,1.387992 0.61375,1.952598 0.17679,1.020036 0.17318,1.025399 -0.56812,0.844297 -1.34553,-0.328718 -3.75215,-0.481401 -4.72152,-0.299548 -1.39082,0.260921 -2.90628,1.759414 -3.58258,3.542488 -0.49156,1.295982 -0.54784,1.840835 -0.41237,3.99256 0.17151,2.724169 0.89721,4.697107 2.59976,7.06786 0.78697,1.09584 0.94361,1.19226 1.72958,1.06472 0.47533,-0.0771 1.96528,-0.66245 3.311,-1.300689 8.86061,-4.202391 15.50698,-10.22513 19.04848,-17.261161 2.32491,-4.618997 3.37341,-9.003758 3.37603,-14.11829 l 0.002,-3.344209 1.12277,1.298215 c 3.02178,3.493967 4.59162,6.077305 5.974,9.830855 1.32936,3.609593 1.73924,5.958884 1.72819,9.905304 -0.0113,4.043186 -0.38832,5.919164 -1.7812,8.863542 -0.82583,1.745701 -3.42918,5.267093 -4.6437,6.281263 -1.30792,1.09215 -0.27335,1.52906 1.77468,0.74946 2.51981,-0.95918 4.96025,-2.607221 7.32855,-4.949013 l 2.25162,-2.226416 -0.004,3.247353 c -0.006,5.068026 -0.98409,8.099326 -4.15349,12.873806 -4.25679,6.41256 -9.97797,10.61858 -20.81795,15.30465 -2.55568,1.10481 -5.20813,2.45904 -6.19328,3.16202 -5.62542,4.01422 -7.91966,9.04393 -6.48759,14.22285 0.24407,0.88267 0.71613,2.04233 1.04901,2.57703 0.77986,1.25264 3.55543,3.22775 6.07522,4.32314 l 1.98056,0.86099 -1.09205,0.93475 c -0.60062,0.51411 -2.30257,1.73424 -3.78209,2.71139 -1.47953,0.97715 -2.80911,1.91587 -2.95464,2.08604 -0.48486,0.567 -9.43849,6.28571 -10.86102,6.93697 -2.08723,0.95556 -3.64515,1.03534 -5.43939,0.27855 z m 6.7745,-82.321981 c 1.91832,-0.801528 1.25945,-3.466584 -0.73338,-2.966416 -1.52676,0.383192 -2.07772,2.127717 -0.92663,2.933978 0.70865,0.496356 0.5568,0.493388 1.66001,0.03244 z"
         id="path94" /><path
         style="fill:#5f656b"
         d="m 132.60785,219.45225 c -2.03624,-0.70067 -3.97681,-2.15568 -4.9171,-3.68677 -1.40603,-2.28945 -1.55196,-3.56059 -1.47506,-12.84869 l 0.0699,-8.44549 h 2.51354 2.51354 l 0.13229,8.59896 c 0.14249,9.26151 0.1631,9.39753 1.63212,10.76915 2.52464,2.35724 6.97693,1.64841 8.64563,-1.37644 0.37361,-0.67725 0.45729,-2.05584 0.57017,-9.39271 l 0.13229,-8.59896 h 2.51354 2.51354 v 9.26675 9.26674 l -0.86533,1.75698 c -1.02201,2.07509 -2.18426,3.17065 -4.54609,4.28523 -1.57734,0.74437 -2.00455,0.82393 -4.77503,0.88928 -2.52978,0.0597 -3.31501,-0.0219 -4.65798,-0.48403 z m -31.99408,-0.034 c -0.0718,-0.18739 -0.0996,-5.87712 -0.0617,-12.64384 l 0.069,-12.30313 h 2.51354 2.51354 l 0.13229,5.55625 c 0.0846,3.5539 0.22764,5.51561 0.39687,5.44347 0.14553,-0.062 2.2129,-2.50281 4.59417,-5.42396 2.38128,-2.92114 4.46487,-5.39865 4.63021,-5.50556 0.42115,-0.27232 6.19191,-0.25202 6.36149,0.0224 0.0764,0.12368 -2.11919,2.8126 -4.87917,5.97538 -2.75999,3.16279 -5.01815,5.83706 -5.01815,5.94284 0,0.10577 2.377,2.98302 5.28223,6.39389 2.90523,3.41086 5.28648,6.3504 5.29167,6.5323 0.007,0.24667 -0.79487,0.33073 -3.15526,0.33073 -2.94015,0 -3.2043,-0.0422 -3.7228,-0.59532 -0.30696,-0.32742 -2.53609,-3.00632 -4.95362,-5.95312 -2.41753,-2.9468 -4.49046,-5.35781 -4.60651,-5.35781 -0.11606,0 -0.24305,2.64914 -0.28221,5.88698 l -0.0712,5.88698 -2.45187,0.0761 c -1.81257,0.0563 -2.48592,-0.0127 -2.58248,-0.26459 z m 53.18511,0.0101 c -0.074,-0.19293 -0.10346,-5.88719 -0.0655,-12.65391 l 0.0689,-12.30313 6.08542,-0.0791 c 6.93148,-0.0901 8.40159,0.14238 10.48272,1.65775 3.19833,2.32886 3.35361,7.11968 0.31211,9.62972 -1.10144,0.90898 -1.08603,0.95571 0.62859,1.90579 0.41108,0.22778 1.08693,1.04002 1.50188,1.80496 1.96153,3.61592 0.18175,7.93514 -3.94511,9.57414 -1.47718,0.58667 -1.97427,0.63 -8.25319,0.71943 -5.372,0.0765 -6.70769,0.0264 -6.81582,-0.25564 z m 13.14833,-4.84871 c 2.1382,-1.5947 1.51523,-4.94503 -1.05974,-5.69933 -0.53498,-0.15672 -2.28237,-0.24817 -3.8831,-0.20322 l -2.91042,0.0817 -0.0756,2.89341 c -0.0416,1.59138 -0.012,3.05913 0.0657,3.26166 0.11327,0.29518 0.83694,0.35105 3.64747,0.28158 3.00918,-0.0744 3.60673,-0.16166 4.21567,-0.61582 z m -1.10931,-10.31723 c 1.09979,-0.56873 1.59042,-1.40985 1.59042,-2.72657 0,-2.3206 -1.71998,-3.11014 -6.34999,-2.91488 l -1.98438,0.0837 -0.0763,2.627 c -0.042,1.44485 -0.0159,2.7843 0.0578,2.97656 0.20076,0.52317 5.73462,0.48569 6.76241,-0.0458 z m 12.82559,15.14971 c -0.0705,-0.18401 -0.0972,-5.87096 -0.0593,-12.63768 l 0.069,-12.30313 8.27858,-0.0699 8.27859,-0.0699 -0.0765,2.31889 c -0.0533,1.61541 -0.17683,2.32892 -0.40723,2.35196 -0.1819,0.0182 -2.71614,0.048 -5.63165,0.0661 l -5.30092,0.0331 0.0754,2.71198 0.0754,2.71198 4.7625,0.13229 4.7625,0.13229 v 2.11667 2.11666 l -4.7625,0.1323 -4.7625,0.13229 -0.0751,2.84427 -0.0751,2.84427 h 5.70779 5.7078 l -0.0764,2.3151 -0.0764,2.31511 -8.14277,0.07 c -6.37164,0.0548 -8.17066,-0.003 -8.27102,-0.26458 z m -75.01747,-38.97196 c -1.60635,-0.5174 -3.672158,-1.72609 -10.451038,-6.11484 -4.64692,-3.00848 -10.05629,-6.5037 -12.02082,-7.76715 -15.35582,-9.87581 -15.57179,-10.0394 -16.956865,-12.84493 -1.0749,-2.17726 -1.23522,-3.55164 -1.69606,-14.53984 -0.559,-13.32852 -0.55152,-13.76022 0.25236,-14.56411 1.12683,-1.12683 1.99004,-0.90098 5.966665,1.56111 l 3.57036,2.21055 0.14246,9.36497 c 0.14927,9.8122 0.15005,9.81865 1.4053,11.67249 0.26814,0.396 1.5774,1.40423 2.90946,2.24051 1.33207,0.83627 7.42257,4.78763 13.53445,8.78079 13.398678,8.75397 13.733568,8.96152 15.075958,9.34357 1.66053,0.47259 4.57068,0.35907 6.11226,-0.23843 0.73945,-0.28661 6.33539,-3.77381 12.43541,-7.74933 6.10002,-3.97553 12.60876,-8.16942 14.46387,-9.31976 3.30387,-2.0487 4.32036,-2.97876 4.99721,-4.57228 0.24092,-0.56722 0.37774,-3.45538 0.48117,-10.15758 l 0.14453,-9.365 3.57036,-2.21052 c 3.97663,-2.46206 4.83985,-2.68791 5.96667,-1.56109 0.60696,0.60696 0.6488,0.82758 0.63976,3.37344 -0.005,1.4982 -0.2301,7.30791 -0.49949,12.91046 -0.53601,11.14705 -0.6167,11.64078 -2.32365,14.21744 -0.50469,0.76183 -1.35369,1.72371 -1.88668,2.13751 -1.87702,1.45728 -33.89693,22.03375 -35.15065,22.58833 -3.33371,1.47466 -7.28564,1.69798 -10.683,0.60369 z m 2.13439,-16.06665 c -1.78446,-0.75432 -2.55982,-1.21811 -7.615108,-4.55503 l -3.99684,-2.63826 1.87075,-0.86651 c 3.2082,-1.48601 6.644588,-5.50797 8.926248,-10.44731 1.16182,-2.51511 2.26823,-5.8006 2.53528,-7.52849 0.0935,-0.60505 0.32111,-1.30671 0.50577,-1.55925 0.29036,-0.39708 0.41465,-0.14458 0.9193,1.86751 0.90791,3.61995 2.80204,8.46252 4.17766,10.68069 1.73892,2.804 5.33364,6.34782 7.29065,7.18744 0.83426,0.35792 1.51429,0.7103 1.51117,0.78306 -0.0107,0.24947 -9.34792,6.16148 -10.73203,6.79515 -2.05934,0.94279 -3.63327,1.02481 -5.39285,0.281 z m 13.95926,-21.15303 c -2.3596,-3.31472 -3.05705,-5.35801 -3.29229,-9.64531 -0.30791,-5.61172 1.21281,-10.24413 4.67651,-14.24552 2.04138,-2.35827 4.79039,-4.62301 6.7302,-5.54459 2.34749,-1.11525 5.72805,-2.08139 6.07363,-1.7358 0.15934,0.15933 -0.14075,0.81357 -0.81726,1.78172 -2.64816,3.78975 -4.36858,8.69545 -4.61927,13.17159 l -0.0889,1.5875 -1.58149,1.1682 c -5.1742,3.82204 -7.49689,9.02245 -6.10112,13.66021 0.21294,0.70756 0.34636,1.32728 0.29649,1.37715 -0.0499,0.0499 -0.62429,-0.65895 -1.27649,-1.57515 z m -24.310148,0.84771 c 0.7976,-2.28418 0.52283,-5.6098 -0.67222,-8.13613 -0.74578,-1.57658 -3.55071,-4.77189 -5.39664,-6.14772 l -1.23756,-0.9224 -0.15298,-2.12031 c -0.28632,-3.96851 -2.29873,-9.4155 -4.80112,-12.9952 -1.77659,-2.54144 -1.69463,-2.61997 1.60941,-1.54192 4.03858,1.31773 6.18371,2.51288 8.32332,4.63733 2.35916,2.34246 3.666,4.26122 5.00519,7.34888 1.52791,3.52277 1.955178,5.85075 1.77478,9.66979 -0.20433,4.3258 -1.24175,7.0559 -3.72802,9.81081 -0.7859,0.87082 -0.91421,0.94114 -0.72416,0.39687 z"
         id="path93" /><path
         style="fill:#cc2325"
         d="m 134.31131,219.80133 c -0.0485,-0.11124 -0.75138,-0.40823 -1.56194,-0.65997 -3.11199,-0.9665 -5.14524,-3.08218 -5.93021,-6.17061 -0.33448,-1.31603 -0.39618,-3.12205 -0.33894,-9.92188 l 0.07,-8.31298 h 2.24896 2.24896 l 0.13686,8.46666 c 0.0753,4.65667 0.2451,8.7048 0.37739,8.99584 0.97255,2.13951 2.86106,3.30729 5.3485,3.30729 2.1554,0 3.65973,-0.80069 4.72058,-2.51257 l 0.79375,-1.28086 0.13229,-8.48818 0.13229,-8.48818 h 2.24896 2.24896 l 0.0784,8.33437 c 0.0863,9.16806 -0.0698,10.4947 -1.48502,12.62062 -1.21209,1.8208 -3.36282,3.27292 -5.41876,3.65861 -0.53893,0.10111 -0.97988,0.28964 -0.97988,0.41897 0,0.28619 -4.94674,0.31825 -5.07118,0.0329 z m 52.56389,-0.3269 -7.9375,-0.13229 -0.0688,-12.24427 c -0.0543,-9.6572 0.002,-12.26966 0.26458,-12.36444 0.18336,-0.0661 3.84572,-0.15212 8.13858,-0.19115 l 7.80521,-0.071 -0.0862,2.36443 c -0.0474,1.30043 -0.16647,2.24487 -0.26458,2.09874 -0.20699,-0.30829 -9.32782,-0.49968 -10.44539,-0.21919 l -0.72997,0.18321 0.0745,2.94578 0.0745,2.94578 4.7625,0.13229 4.7625,0.13229 v 1.85209 1.85208 l -4.7625,0.13229 -4.7625,0.13229 v 3.04271 3.04271 h 5.68854 5.68854 l -0.0367,2.19742 c -0.0202,1.20858 -0.0797,2.22061 -0.13229,2.24896 -0.0526,0.0284 -3.66751,-0.008 -8.03313,-0.0807 z m -85.99658,-0.31996 c -0.072,-0.18783 -0.0999,-5.75884 -0.062,-12.38004 l 0.069,-12.03854 h 2.24896 2.24895 l 0.0714,5.62239 c 0.0824,6.49141 0.0984,6.52233 2.10176,4.07592 0.69653,-0.85057 2.79118,-3.41041 4.65479,-5.68854 l 3.38836,-4.14206 h 2.89549 c 1.59252,0 2.89549,0.0738 2.89549,0.16404 0,0.19485 -4.61756,5.57295 -7.47556,8.70682 -1.88241,2.06411 -2.36162,2.73126 -2.26724,3.15644 0.047,0.21188 2.42526,3.12071 5.28496,6.46406 2.85971,3.34335 5.13182,6.14646 5.04914,6.22914 -0.0827,0.0827 -1.42992,0.15033 -2.99387,0.15033 h -2.84354 l -4.58684,-5.57826 c -2.52277,-3.06804 -4.71903,-5.74695 -4.8806,-5.95313 -0.16156,-0.20617 -0.4867,-0.37486 -0.72254,-0.37486 -0.38035,0 -0.43683,0.66504 -0.5,5.88698 l -0.0712,5.88698 -2.18698,0.0769 c -1.59982,0.0563 -2.22214,-0.0148 -2.31793,-0.26459 z m 53.1862,0.0129 c -0.0747,-0.19493 -0.10486,-5.77176 -0.0669,-12.39296 l 0.069,-12.03854 h 6.61458 c 6.59316,0 6.6193,0.002 8.06979,0.69439 1.72371,0.82251 2.46922,1.49173 3.14307,2.82144 0.70181,1.38488 0.91301,2.9825 0.56508,4.27458 -0.31686,1.17675 -1.82896,3.06156 -2.6704,3.32863 -0.73081,0.23195 -0.64219,1.09319 0.13248,1.28762 1.82558,0.45819 3.37873,2.8233 3.39288,5.1666 0.0113,1.86938 -0.58672,3.28978 -1.98737,4.72042 -1.99494,2.03766 -3.02038,2.26921 -10.5786,2.38871 -5.29977,0.0838 -6.57355,0.036 -6.68356,-0.25089 z m 12.40154,-4.02652 c 1.38884,-0.58029 2.0203,-1.59108 2.0203,-3.23392 0,-1.25832 -0.0996,-1.51032 -0.92214,-2.33285 -1.12398,-1.12398 -1.79499,-1.26061 -5.69245,-1.15911 l -3.0427,0.0792 -0.075,3.15959 c -0.0412,1.73778 -0.0152,3.31536 0.0578,3.50573 0.19094,0.4976 6.45509,0.48231 7.65413,-0.0187 z m -0.48258,-10.63819 c 1.1791,-0.55952 1.75323,-1.50271 1.75323,-2.88025 0,-1.34379 -0.37065,-2.01822 -1.47756,-2.68853 -0.68074,-0.41223 -1.36203,-0.49384 -4.12279,-0.49384 h -3.30729 l -0.0756,2.89341 c -0.0416,1.59138 -0.0156,3.0499 0.0578,3.24115 0.20685,0.53904 6.00724,0.48086 7.17217,-0.0719 z m -61.45629,-24.0653 c -2.56617,-0.6911 -2.44495,-0.61682 -27.454368,-16.82345 -10.02683,-6.4976 -10.4627,-6.81083 -11.660695,-8.37981 -1.86317,-2.44011 -1.97477,-3.0764 -2.51542,-14.34094 -0.66011,-13.75339 -0.65789,-15.46078 0.0209,-16.13958 0.95984,-0.95984 1.9081,-0.68517 5.708885,1.65364 l 3.54729,2.18282 0.002,8.3644 c 0.001,4.60043 0.12202,9.00574 0.26858,9.78959 0.35719,1.91049 1.39158,3.3244 3.3654,4.60017 0.90057,0.58209 4.82736,3.11992 8.72621,5.63964 3.89884,2.51972 9.80125,6.35605 13.11647,8.52517 5.902698,3.8621 7.142368,4.50806 9.351158,4.87265 1.34667,0.22229 4.09533,-0.25252 5.44355,-0.94033 0.55408,-0.28267 5.50164,-3.44692 10.9946,-7.03167 5.49295,-3.58475 11.89219,-7.70334 14.22052,-9.15242 4.53299,-2.82119 4.88584,-3.12407 5.7732,-4.95575 0.55344,-1.14241 0.5802,-1.56624 0.66079,-10.46703 l 0.084,-9.2764 3.51787,-2.16682 c 3.77828,-2.32723 4.74103,-2.6035 5.70687,-1.63766 0.4432,0.44319 0.52953,0.88379 0.53139,2.71198 0.004,3.89172 -0.78263,20.91182 -1.0592,22.91824 -0.32151,2.33246 -1.39561,4.50664 -2.99365,6.05966 -1.26499,1.22937 -32.75378,21.68416 -35.37229,22.97747 -0.94589,0.46719 -2.35073,0.97878 -3.12188,1.13687 -1.90401,0.39034 -5.17912,0.33286 -6.86229,-0.12044 z m 1.25292,-16.06388 c -1.78446,-0.75432 -2.55982,-1.21811 -7.615108,-4.55503 l -3.99684,-2.63826 1.87075,-0.86651 c 3.2082,-1.48601 6.644588,-5.50797 8.926248,-10.44731 1.16182,-2.51511 2.26823,-5.8006 2.53528,-7.52849 0.0935,-0.60505 0.32111,-1.30671 0.50577,-1.55925 0.29036,-0.39708 0.41465,-0.14458 0.9193,1.86751 0.90791,3.61995 2.80204,8.46252 4.17766,10.68069 1.73892,2.804 5.33364,6.34782 7.29065,7.18744 0.83426,0.35792 1.51429,0.7103 1.51117,0.78306 -0.0107,0.24947 -9.34792,6.16148 -10.73203,6.79515 -2.05934,0.94279 -3.63327,1.02481 -5.39285,0.281 z m 13.95926,-21.15303 c -2.3596,-3.31472 -3.05705,-5.35801 -3.29229,-9.64531 -0.30791,-5.61172 1.21281,-10.24413 4.67651,-14.24552 2.04138,-2.35827 4.79039,-4.62301 6.7302,-5.54459 2.34749,-1.11525 5.72805,-2.08139 6.07363,-1.7358 0.15934,0.15933 -0.14075,0.81357 -0.81726,1.78172 -2.64816,3.78975 -4.36858,8.69545 -4.61927,13.17159 l -0.0889,1.5875 -1.58149,1.1682 c -5.1742,3.82204 -7.49689,9.02245 -6.10112,13.66021 0.21294,0.70756 0.34636,1.32728 0.29649,1.37715 -0.0499,0.0499 -0.62429,-0.65895 -1.27649,-1.57515 z m -24.310148,0.84771 c 0.7976,-2.28418 0.52283,-5.6098 -0.67222,-8.13613 -0.74578,-1.57658 -3.55071,-4.77189 -5.39664,-6.14772 l -1.23756,-0.9224 -0.15298,-2.12031 c -0.28632,-3.96851 -2.29873,-9.4155 -4.80112,-12.9952 -1.77659,-2.54144 -1.69463,-2.61997 1.60941,-1.54192 4.03858,1.31773 6.18371,2.51288 8.32332,4.63733 2.35916,2.34246 3.666,4.26122 5.00519,7.34888 1.52791,3.52277 1.955178,5.85075 1.77478,9.66979 -0.20433,4.3258 -1.24175,7.0559 -3.72802,9.81081 -0.7859,0.87082 -0.91421,0.94114 -0.72416,0.39687 z"
         id="path92" /><path
         style="fill:#2d3840"
         d="m 134.31131,219.80133 c -0.0485,-0.11124 -0.75138,-0.40823 -1.56194,-0.65997 -3.11199,-0.9665 -5.14524,-3.08218 -5.93021,-6.17061 -0.33448,-1.31603 -0.39618,-3.12205 -0.33894,-9.92188 l 0.07,-8.31298 h 2.24896 2.24896 l 0.13686,8.46666 c 0.0753,4.65667 0.2451,8.7048 0.37739,8.99584 0.97255,2.13951 2.86106,3.30729 5.3485,3.30729 2.1554,0 3.65973,-0.80069 4.72058,-2.51257 l 0.79375,-1.28086 0.13229,-8.48818 0.13229,-8.48818 h 2.24896 2.24896 l 0.0784,8.33437 c 0.0863,9.16806 -0.0698,10.4947 -1.48502,12.62062 -1.21209,1.8208 -3.36282,3.27292 -5.41876,3.65861 -0.53893,0.10111 -0.97988,0.28964 -0.97988,0.41897 0,0.28619 -4.94674,0.31825 -5.07118,0.0329 z m 52.56389,-0.3269 -7.9375,-0.13229 -0.0688,-12.24427 c -0.0543,-9.6572 0.002,-12.26966 0.26458,-12.36444 0.18336,-0.0661 3.84572,-0.15212 8.13858,-0.19115 l 7.80521,-0.071 -0.0862,2.36443 c -0.0474,1.30043 -0.16647,2.24487 -0.26458,2.09874 -0.20699,-0.30829 -9.32782,-0.49968 -10.44539,-0.21919 l -0.72997,0.18321 0.0745,2.94578 0.0745,2.94578 4.7625,0.13229 4.7625,0.13229 v 1.85209 1.85208 l -4.7625,0.13229 -4.7625,0.13229 v 3.04271 3.04271 h 5.68854 5.68854 l -0.0367,2.19742 c -0.0202,1.20858 -0.0797,2.22061 -0.13229,2.24896 -0.0526,0.0284 -3.66751,-0.008 -8.03313,-0.0807 z m -85.99658,-0.31996 c -0.072,-0.18783 -0.0999,-5.75884 -0.062,-12.38004 l 0.069,-12.03854 h 2.24896 2.24895 l 0.0714,5.62239 c 0.0824,6.49141 0.0984,6.52233 2.10176,4.07592 0.69653,-0.85057 2.79118,-3.41041 4.65479,-5.68854 l 3.38836,-4.14206 h 2.89549 c 1.59252,0 2.89549,0.0738 2.89549,0.16404 0,0.19485 -4.61756,5.57295 -7.47556,8.70682 -1.88241,2.06411 -2.36162,2.73126 -2.26724,3.15644 0.047,0.21188 2.42526,3.12071 5.28496,6.46406 2.85971,3.34335 5.13182,6.14646 5.04914,6.22914 -0.0827,0.0827 -1.42992,0.15033 -2.99387,0.15033 h -2.84354 l -4.58684,-5.57826 c -2.52277,-3.06804 -4.71903,-5.74695 -4.8806,-5.95313 -0.16156,-0.20617 -0.4867,-0.37486 -0.72254,-0.37486 -0.38035,0 -0.43683,0.66504 -0.5,5.88698 l -0.0712,5.88698 -2.18698,0.0769 c -1.59982,0.0563 -2.22214,-0.0148 -2.31793,-0.26459 z m 53.1862,0.0129 c -0.0747,-0.19493 -0.10486,-5.77176 -0.0669,-12.39296 l 0.069,-12.03854 h 6.61458 c 6.59316,0 6.6193,0.002 8.06979,0.69439 1.72371,0.82251 2.46922,1.49173 3.14307,2.82144 0.70181,1.38488 0.91301,2.9825 0.56508,4.27458 -0.31686,1.17675 -1.82896,3.06156 -2.6704,3.32863 -0.73081,0.23195 -0.64219,1.09319 0.13248,1.28762 1.82558,0.45819 3.37873,2.8233 3.39288,5.1666 0.0113,1.86938 -0.58672,3.28978 -1.98737,4.72042 -1.99494,2.03766 -3.02038,2.26921 -10.5786,2.38871 -5.29977,0.0838 -6.57355,0.036 -6.68356,-0.25089 z m 12.40154,-4.02652 c 1.38884,-0.58029 2.0203,-1.59108 2.0203,-3.23392 0,-1.25832 -0.0996,-1.51032 -0.92214,-2.33285 -1.12398,-1.12398 -1.79499,-1.26061 -5.69245,-1.15911 l -3.0427,0.0792 -0.075,3.15959 c -0.0412,1.73778 -0.0152,3.31536 0.0578,3.50573 0.19094,0.4976 6.45509,0.48231 7.65413,-0.0187 z m -0.48258,-10.63819 c 1.1791,-0.55952 1.75323,-1.50271 1.75323,-2.88025 0,-1.34379 -0.37065,-2.01822 -1.47756,-2.68853 -0.68074,-0.41223 -1.36203,-0.49384 -4.12279,-0.49384 h -3.30729 l -0.0756,2.89341 c -0.0416,1.59138 -0.0156,3.0499 0.0578,3.24115 0.20685,0.53904 6.00724,0.48086 7.17217,-0.0719 z m -61.45629,-24.0653 c -2.56617,-0.6911 -2.44495,-0.61682 -27.454368,-16.82345 -10.02683,-6.4976 -10.4627,-6.81083 -11.660695,-8.37981 -1.86317,-2.44011 -1.97477,-3.0764 -2.51542,-14.34094 -0.66011,-13.75339 -0.65789,-15.46078 0.0209,-16.13958 0.95984,-0.95984 1.9081,-0.68517 5.708885,1.65364 l 3.54729,2.18282 0.002,8.3644 c 0.001,4.60043 0.12202,9.00574 0.26858,9.78959 0.35719,1.91049 1.39158,3.3244 3.3654,4.60017 0.90057,0.58209 4.82736,3.11992 8.72621,5.63964 3.89884,2.51972 9.80125,6.35605 13.11647,8.52517 5.902698,3.8621 7.142368,4.50806 9.351158,4.87265 1.34667,0.22229 4.09533,-0.25252 5.44355,-0.94033 0.55408,-0.28267 5.50164,-3.44692 10.9946,-7.03167 5.49295,-3.58475 11.89219,-7.70334 14.22052,-9.15242 4.53299,-2.82119 4.88584,-3.12407 5.7732,-4.95575 0.55344,-1.14241 0.5802,-1.56624 0.66079,-10.46703 l 0.084,-9.2764 3.51787,-2.16682 c 3.77828,-2.32723 4.74103,-2.6035 5.70687,-1.63766 0.4432,0.44319 0.52953,0.88379 0.53139,2.71198 0.004,3.89172 -0.78263,20.91182 -1.0592,22.91824 -0.32151,2.33246 -1.39561,4.50664 -2.99365,6.05966 -1.26499,1.22937 -32.75378,21.68416 -35.37229,22.97747 -0.94589,0.46719 -2.35073,0.97878 -3.12188,1.13687 -1.90401,0.39034 -5.17912,0.33286 -6.86229,-0.12044 z"
         id="path91" /><path
         style="fill:#2a353d"
         d="m 194.68041,219.49004 c 0,-0.19087 -2.48815,-0.28019 -7.80521,-0.28019 -4.29287,0 -7.80524,-0.0893 -7.80527,-0.19844 -3e-5,-0.10914 3.42301,-0.19844 7.60677,-0.19844 h 7.60683 l 0.0792,-1.51595 0.0792,-1.51594 -5.50315,-0.0772 -5.50314,-0.0772 5.60034,-0.0605 c 4.19338,-0.0453 5.63106,-0.14357 5.72258,-0.39121 0.0672,-0.1819 0.16644,0.72281 0.22049,2.01047 0.054,1.28766 0.009,2.39601 -0.10019,2.46301 -0.10914,0.067 -0.19843,-0.004 -0.19843,-0.15838 z m -93.59912,-12.51717 0.0634,-12.23698 0.0716,11.97239 0.0716,11.9724 0.8572,0.0528 c 0.47146,0.0291 1.27391,0.0588 1.78324,0.0662 l 0.92604,0.0133 0.1401,-5.68854 0.14009,-5.68854 0.0583,5.88698 0.0583,5.88697 h -2.11666 -2.11667 z m 14.926,12.03854 c -0.0677,-0.10914 0.96707,-0.19844 2.29949,-0.19844 2.16045,0 2.41418,-0.0501 2.34484,-0.46302 -0.10758,-0.64071 0.0731,-0.57918 0.58258,0.19844 l 0.43341,0.66146 H 118.899 c -1.52274,0 -2.824,-0.0893 -2.89171,-0.19844 z m 38.76534,0.0659 c 0.0729,-0.0729 2.97445,-0.16217 6.44795,-0.19844 3.4735,-0.0363 5.96379,0.009 5.53399,0.1012 -0.92714,0.19829 -12.17427,0.28957 -11.98194,0.0972 z m -0.45194,-12.17063 c 6e-5,-6.40292 0.0346,-8.98443 0.0767,-5.7367 0.0421,3.24773 0.0421,8.48648 -1.1e-4,11.64166 -0.0422,3.15519 -0.0766,0.49796 -0.0766,-5.90496 z m 6.36076,9.1087 c -1.55951,-0.12775 -1.32963,-0.15966 1.45521,-0.20205 1.81901,-0.0277 3.60495,-0.1116 3.96875,-0.18647 0.56104,-0.11548 0.58112,-0.10014 0.13229,0.101 -0.74021,0.33173 -3.36103,0.46735 -5.55625,0.28752 z m -2.41158,-3.94932 c 0,-1.81901 0.0423,-2.56315 0.0939,-1.65365 0.0517,0.90951 0.0517,2.39779 0,3.30729 -0.0517,0.90951 -0.0939,0.16537 -0.0939,-1.65364 z m 24.74761,2.3151 c -0.1305,-2.03016 -0.0912,-4.77708 0.072,-5.03399 0.11315,-0.1781 0.20755,0.9561 0.20978,2.52045 0.002,1.56435 -0.0555,2.84427 -0.12824,2.84427 -0.0728,0 -0.14186,-0.14883 -0.15355,-0.33073 z m -55.97033,-1.19062 c -0.12162,-0.25467 -0.23304,-4.51115 -0.2476,-9.45886 l -0.0265,-8.99583 0.16368,8.99583 c 0.09,4.94771 0.26098,9.20419 0.37989,9.45886 0.11891,0.25466 0.15668,0.46302 0.0839,0.46302 -0.0728,0 -0.2318,-0.20836 -0.35342,-0.46302 z m 15.62082,-1.91823 c 0.0808,-0.36381 0.14851,-4.20357 0.15049,-8.53282 0.002,-4.32924 0.0929,-7.87139 0.20205,-7.87145 0.32279,-1.6e-4 0.11637,16.10679 -0.21299,16.61968 -0.23722,0.36941 -0.2612,0.3324 -0.13955,-0.21541 z m 4.23056,-3.70417 c 0,-2.40109 0.0401,-3.38336 0.0891,-2.18281 0.049,1.20054 0.049,3.16508 0,4.36562 -0.049,1.20055 -0.0891,0.21828 -0.0891,-2.18281 z m -16.24729,-4.48529 v -7.92488 l -1.65364,-0.0939 -1.65365,-0.0939 1.78594,-0.051 1.78594,-0.051 v 8.0698 c 0,4.43838 -0.0595,8.06979 -0.1323,8.06979 -0.0728,0 -0.13229,-3.5662 -0.13229,-7.92488 z m 60.39788,5.34727 1.79267,-0.0927 -0.0729,-1.37682 -0.0729,-1.37682 -3.43958,-0.14406 -3.43958,-0.14405 3.63802,-0.0544 3.63802,-0.0544 v 1.71979 1.71979 l -1.91823,-0.0518 -1.91823,-0.0518 z m -30.42416,-0.52863 c 0.84206,-0.0527 2.15175,-0.0522 2.91042,0.001 0.75867,0.0533 0.0697,0.0964 -1.53101,0.0958 -1.60073,-5.9e-4 -2.22146,-0.0442 -1.37941,-0.0968 z m -55.6383,-7.33031 v -5.40946 l -1.25677,-0.0991 -1.25677,-0.0991 1.38906,-0.0477 1.38906,-0.0477 v 5.55625 c 0,3.05593 -0.0595,5.55625 -0.13229,5.55625 -0.0728,0 -0.13229,-2.43426 -0.13229,-5.40946 z m 54.63646,4.71322 c 1.81911,-0.18882 6.14581,-0.21496 5.86273,-0.0354 -0.16857,0.10691 -1.73523,0.17715 -3.48148,0.15609 -1.74625,-0.0211 -2.81782,-0.0754 -2.38125,-0.12068 z m -1.35325,-3.53709 c 0,-1.81901 0.0423,-2.56315 0.0939,-1.65365 0.0517,0.90951 0.0517,2.39779 0,3.30729 -0.0517,0.90951 -0.0939,0.16537 -0.0939,-1.65364 z m 24.86784,-0.1323 c 6e-4,-1.60072 0.0442,-2.22146 0.0968,-1.3794 0.0527,0.84206 0.0522,2.15175 -0.001,2.91042 -0.0533,0.75867 -0.0964,0.0697 -0.0958,-1.53102 z m 11.5427,-3.05832 c 0,-0.15411 -0.11907,-0.20661 -0.26459,-0.11668 -0.14552,0.0899 -0.26458,0.0374 -0.26458,-0.11667 0,-0.15411 0.11906,-0.2802 0.26458,-0.2802 0.14552,0 0.26276,-0.32742 0.26054,-0.7276 -0.003,-0.56699 -0.0607,-0.64 -0.26054,-0.33073 -0.18898,0.29243 -0.25648,0.11836 -0.25648,-0.66146 0,-0.77982 0.0675,-0.95389 0.25648,-0.66146 0.21919,0.33917 0.25707,0.32955 0.26054,-0.0661 0.004,-0.4287 -0.55004,-0.4676 -7.47043,-0.52481 l -7.47448,-0.0618 7.39536,-0.0748 c 5.5078,-0.0557 7.44829,-0.1581 7.60272,-0.40123 0.11405,-0.17955 0.20918,0.71534 0.21141,1.98865 0.002,1.27331 -0.0555,2.31511 -0.12824,2.31511 -0.0728,0 -0.13229,-0.12609 -0.13229,-0.2802 z m -90.15292,-18.38393 c -1.39578,-0.3759 -4.17613,-1.6596 -3.99241,-1.84332 0.0544,-0.0544 0.86073,0.27861 1.79178,0.74009 1.33633,0.66235 2.04333,0.84276 3.35728,0.85674 0.91546,0.01 1.74818,0.10142 1.85051,0.20375 0.301,0.301 1.16213,0.21283 1.09003,-0.11162 -0.0364,-0.16371 0.0827,-0.35223 0.26458,-0.41892 0.18191,-0.0667 0.33073,0.0673 0.33073,0.29765 0,0.61542 0.53647,0.55464 4.23334,-0.47962 0.6117,-0.17113 0.62166,-0.16044 0.13245,0.14224 -1.5888,0.98297 -6.46039,1.31266 -9.05829,0.61301 z m -9.263528,-5.09636 c -1.05462,-0.68345 -1.91783,-1.32792 -1.91823,-1.43215 -8.5e-4,-0.21802 1.8077,0.79622 2.33943,1.31196 0.19569,0.18981 0.70171,0.52398 1.12448,0.7426 0.73628,0.38074 0.99122,0.66435 0.57025,0.63436 -0.10914,-0.008 -1.06131,-0.57332 -2.11593,-1.25677 z M 64.226437,152.60099 c -0.14624,-0.40018 -0.33437,-0.90619 -0.41807,-1.12448 -0.19396,-0.50586 -1.1311,-19.58697 -1.14475,-23.30847 -0.009,-2.43193 0.0567,-2.86389 0.49549,-3.26098 0.31762,-0.28745 0.78513,-0.41587 1.25677,-0.34523 l 0.751,0.11248 -0.8275,0.0396 c -1.5707,0.0752 -1.54179,-0.33999 -0.9471,13.60268 0.41314,9.68632 0.64198,13.03408 0.94931,13.88748 0.22272,0.61847 0.34775,1.12448 0.27784,1.12448 -0.0699,0 -0.24675,-0.32742 -0.39299,-0.7276 z m 88.128163,-1.41111 c 0.004,-0.20615 0.1188,-2.56063 0.25478,-5.23217 0.21467,-4.21731 0.19424,-4.91036 -0.15503,-5.25964 -0.22126,-0.22126 -0.33591,-0.57527 -0.25478,-0.78669 0.0811,-0.21142 0.16159,-0.58302 0.17881,-0.82578 0.0172,-0.24276 0.12576,-0.0842 0.2412,0.35237 0.16081,0.60811 0.21911,0.32964 0.24927,-1.19062 0.0217,-1.09141 0.15986,-4.24657 0.30712,-7.01146 0.31785,-5.96781 0.22073,-6.46078 -1.28537,-6.52464 l -0.99873,-0.0423 0.88464,-0.10855 c 1.58326,-0.19429 1.89502,0.38087 1.88381,3.47539 -0.0146,4.02652 -0.95315,23.16887 -1.14542,23.36114 -0.0923,0.0923 -0.16444,-8.5e-4 -0.1603,-0.207 z m -80.535928,-4.53152 c -0.0893,-0.33319 -0.13917,-4.53487 -0.11093,-9.33705 l 0.0513,-8.73125 0.14347,9.26041 c 0.0789,5.09323 0.12883,9.29491 0.11093,9.33706 -0.0179,0.0421 -0.10557,-0.19597 -0.19483,-0.52917 z m 72.533658,-8.42033 c 0.0413,-5.01534 0.12684,-9.26764 0.19014,-9.44954 0.0633,-0.1819 0.26765,-0.32133 0.45411,-0.30984 0.26555,0.0164 0.26735,0.0498 0.008,0.15434 -0.25404,0.10251 -0.33799,2.10701 -0.36204,8.64422 -0.0172,4.68092 -0.10651,8.86376 -0.19843,9.2952 -0.0919,0.43144 -0.13336,-3.31903 -0.0921,-8.33438 z"
         id="path90" /></g></g></svg>
